<?xml version="1.0" standalone="no"?>
<!DOCTYPE svg PUBLIC "-//W3C//DTD SVG 20010904//EN"
 "http://www.w3.org/TR/2001/REC-SVG-20010904/DTD/svg10.dtd">
<svg version="1.0" xmlns="http://www.w3.org/2000/svg"
 width="430.000000pt" height="230.000000pt" viewBox="0 0 430.000000 230.000000"
 preserveAspectRatio="xMidYMid meet">
<metadata>
Created by potrace 1.15, written by Peter Selinger 2001-2017
</metadata>
<g transform="translate(0.000000,230.000000) scale(0.100000,-0.100000)"
fill="#000000" stroke="none">
<path d="M2620 2106 c-30 -12 -75 -33 -100 -46 l-45 -24 38 -7 c24 -4 51 -18
70 -38 27 -27 32 -39 32 -81 0 -28 1 -50 3 -50 14 0 166 85 181 102 25 26 27
79 5 113 -15 24 -80 55 -112 55 -9 -1 -42 -11 -72 -24z m154 -21 c32 -30 36
-92 8 -118 -51 -46 -131 -42 -172 10 -28 36 -25 69 9 104 40 39 114 42 155 4z"/>
<path d="M260 2046 c-188 -91 -210 -107 -217 -163 -5 -42 -5 -43 23 -43 27 -1
28 -2 11 -14 -17 -13 -16 -15 9 -35 33 -26 64 -28 59 -3 -2 9 -4 18 -5 20 -2
1 -3 5 -5 10 -1 4 -5 15 -10 26 -5 11 -3 26 4 38 16 25 5 41 -18 28 -20 -10
-31 -4 -31 16 0 8 6 11 15 8 8 -4 15 -1 15 6 0 9 4 9 17 -1 11 -10 14 -10 9
-1 -5 8 3 16 21 24 15 6 31 11 36 10 4 -1 7 2 7 6 0 5 11 14 25 20 21 10 31 9
53 -5 l27 -17 -19 22 c-29 33 -4 27 29 -8 l28 -30 -36 -15 c-20 -8 -40 -15
-44 -15 -5 0 -15 -9 -23 -20 -10 -14 -17 -17 -27 -8 -16 13 -17 -4 -1 -20 7
-7 9 -12 5 -12 -3 0 -16 10 -28 23 -18 18 -21 19 -15 4 3 -10 6 -29 6 -41 0
-19 5 -22 29 -21 25 1 29 -1 25 -22 -2 -12 -1 -23 4 -23 5 0 84 39 176 86 143
73 170 91 183 119 14 28 14 38 3 65 -7 17 -22 36 -33 42 -20 10 -20 10 1 -17
37 -47 26 -102 -28 -130 -58 -30 -127 -9 -156 46 -13 26 -13 36 -3 60 6 17 21
36 33 44 43 31 -4 12 -154 -59z"/>
<path d="M1045 2019 c-187 -88 -225 -117 -225 -174 0 -28 4 -35 20 -35 11 0
20 -4 20 -10 0 -5 -4 -10 -10 -10 -20 0 -9 -20 20 -35 64 -33 108 -22 298 75
97 50 185 100 195 111 35 43 15 120 -40 148 -52 26 -102 14 -278 -70z m288 51
c30 -24 44 -78 28 -109 -29 -53 -129 -65 -175 -22 -12 12 -25 19 -27 16 -3 -2
-4 16 -4 42 2 37 8 51 29 70 36 31 112 32 149 3z m-245 -174 c-15 -9 -15 -11
-1 -21 13 -10 14 -15 3 -36 -7 -13 -20 -29 -29 -36 -19 -15 -70 -16 -91 -3
-13 9 -11 13 10 31 l25 20 -32 -15 c-42 -21 -46 -20 -59 8 -10 22 -7 25 59 60
38 20 73 33 78 30 5 -3 9 0 9 7 0 7 10 2 22 -11 20 -21 20 -24 6 -34z"/>
<path d="M1735 1919 c-159 -80 -190 -98 -147 -85 23 8 32 -9 10 -17 -18 -6 19
-47 41 -46 9 0 90 37 180 83 l164 82 -37 22 c-20 12 -36 26 -36 32 0 5 -3 10
-7 9 -5 0 -80 -36 -168 -80z"/>
<path d="M3845 1948 c-69 -34 -85 -51 -85 -89 0 -33 41 -69 77 -69 69 0 121
68 73 97 -15 10 -18 10 -14 0 7 -19 -60 -49 -76 -34 -10 9 -11 9 -5 -2 4 -8 2
-17 -6 -22 -20 -12 -26 -11 -33 7 -4 11 5 20 32 31 20 8 50 24 66 36 23 16 30
17 37 6 5 -8 6 2 2 26 -3 22 -6 41 -7 42 -1 0 -28 -12 -61 -29z"/>
<path d="M3365 1429 c-27 -11 -115 -53 -195 -92 -124 -62 -148 -77 -164 -108
-25 -46 -16 -89 16 -82 22 4 22 4 5 -10 -17 -14 -17 -16 9 -36 35 -28 82 -35
124 -19 88 33 360 179 379 204 40 51 15 121 -55 150 -43 18 -59 17 -119 -7z
m152 -33 c43 -50 23 -115 -42 -136 -45 -15 -87 -5 -119 27 -38 37 -35 83 6
118 28 24 39 27 82 22 38 -3 55 -11 73 -31z m-294 -119 c-3 -5 -11 -6 -18 -3
-18 6 -75 -31 -75 -49 0 -21 36 -55 59 -55 23 0 47 25 31 35 -5 3 -14 3 -20 0
-18 -11 -11 14 10 35 27 27 35 25 58 -12 24 -38 20 -51 -23 -78 -70 -43 -165
-10 -165 58 0 37 23 66 75 96 l40 23 17 -21 c9 -11 14 -24 11 -29z"/>
<path d="M3985 1350 c-191 -91 -235 -126 -235 -185 0 -29 4 -35 21 -35 17 0
19 -3 10 -13 -18 -23 22 -50 82 -55 50 -4 61 0 232 88 203 105 205 106 205
130 0 15 -5 13 -29 -11 -83 -82 -231 15 -166 109 33 47 131 45 173 -3 13 -15
22 -20 22 -12 0 28 -48 60 -97 64 -43 3 -65 -5 -218 -77z"/>
<path d="M1755 1287 c-198 -96 -192 -93 -210 -128 -21 -40 -16 -85 8 -81 9 2
17 -2 17 -8 0 -5 -6 -10 -12 -10 -7 0 0 -12 15 -25 22 -20 39 -25 78 -25 43 0
73 12 235 96 101 53 189 104 194 114 17 31 12 85 -10 108 -29 31 -31 27 -8
-16 27 -48 19 -86 -25 -113 -41 -26 -108 -21 -141 10 -12 12 -25 19 -27 17 -2
-3 -4 12 -4 32 1 42 17 76 43 91 9 6 13 10 7 11 -5 0 -77 -33 -160 -73z m24
-61 c28 -15 51 -53 51 -86 0 -11 -13 -34 -28 -51 -23 -26 -38 -33 -80 -37 -47
-4 -54 -2 -82 26 -32 32 -40 76 -20 112 24 45 105 63 159 36z"/>
<path d="M360 1306 c-30 -13 -116 -53 -191 -89 -145 -70 -169 -91 -169 -152 0
-28 4 -35 20 -35 19 0 20 -1 5 -24 -15 -22 -15 -27 0 -55 8 -17 29 -37 45 -46
50 -26 92 -19 187 31 185 97 274 146 270 150 -2 2 -82 -37 -178 -88 -132 -69
-184 -91 -215 -92 -52 -1 -90 19 -103 55 l-10 29 29 -15 c60 -31 99 -21 289
74 109 55 187 100 200 117 42 53 19 120 -50 148 -51 21 -63 20 -129 -8z m150
-22 c27 -23 31 -32 28 -67 -6 -74 -93 -109 -160 -64 -20 14 -38 24 -40 22 -2
-2 -4 15 -6 36 -6 88 105 133 178 73z"/>
<path d="M890 1195 c-27 -28 -36 -32 -52 -24 -11 6 -21 9 -23 7 -13 -16 -25
-52 -25 -76 0 -25 3 -29 20 -25 22 6 26 -7 9 -24 -8 -8 -4 -15 12 -27 30 -21
49 -20 78 4 19 17 21 23 11 35 -14 17 -15 17 24 33 16 7 26 16 22 19 -3 4 -11
2 -17 -4 -15 -15 -91 -3 -106 16 -19 26 -3 33 19 9 15 -17 18 -19 14 -5 -9 29
3 48 25 37 15 -8 17 -7 13 4 -4 9 5 20 25 31 37 19 39 25 8 25 -13 0 -37 -15
-57 -35z"/>
<path d="M975 585 c-99 -47 -191 -96 -204 -109 -28 -29 -36 -100 -11 -102 33
-3 34 -5 18 -18 -17 -12 -17 -14 3 -32 16 -14 36 -19 83 -19 58 0 71 6 241 95
165 88 180 98 193 132 17 43 4 79 -39 110 -57 43 -89 37 -284 -57z m286 36
c90 -91 -61 -203 -156 -115 -34 31 -34 86 0 119 19 20 34 25 75 25 44 0 56 -5
81 -29z"/>
<path d="M213 505 c-141 -68 -176 -89 -193 -117 -23 -37 -23 -83 0 -83 8 0 14
8 14 18 -3 25 255 155 268 135 35 -53 34 -84 -3 -73 -14 5 -19 4 -15 -4 5 -7
1 -8 -10 -4 -12 4 -15 3 -10 -5 5 -8 1 -10 -10 -5 -13 5 -15 3 -9 -7 5 -9 4
-11 -3 -6 -7 4 -12 2 -12 -4 0 -6 -4 -8 -10 -5 -5 3 -10 1 -10 -6 0 -7 -3 -10
-6 -7 -3 4 -15 -3 -26 -14 -11 -11 -26 -17 -34 -14 -8 3 -14 1 -14 -4 0 -5 -7
-6 -17 -3 -10 4 -14 2 -9 -5 4 -7 -6 -10 -30 -9 -21 1 -39 -3 -41 -9 -5 -15
58 -44 95 -44 35 0 374 170 412 206 35 34 33 86 -5 122 l-28 27 21 -29 c30
-39 29 -90 -2 -121 -53 -53 -149 -37 -180 30 -18 38 -14 59 22 98 14 15 24 27
21 26 -2 0 -81 -38 -176 -84z"/>
<path d="M1683 472 c-34 -25 -58 -49 -52 -53 7 -4 5 -9 -5 -12 -21 -8 -21 -47
-1 -47 10 0 15 7 13 18 -2 9 2 16 8 15 7 -1 10 6 7 20 -4 20 -3 21 10 5 20
-25 27 -22 27 12 0 17 3 30 8 30 14 -1 46 -30 39 -36 -4 -4 -13 -1 -21 5 -13
11 -15 9 -11 -9 3 -15 -3 -24 -20 -32 -14 -6 -25 -15 -25 -19 0 -5 -9 -13 -21
-19 -27 -15 -52 5 -46 37 4 20 1 23 -17 17 -11 -4 -23 -8 -25 -10 -8 -7 42
-74 55 -74 8 0 50 26 94 58 43 31 86 62 96 68 17 10 17 12 -5 42 -12 18 -28
32 -34 31 -7 0 -40 -21 -74 -47z"/>
</g>
</svg>
